<?xml version="1.0" encoding="iso-8859-1"?>
<!-- Uploaded to: SVG Repo, www.svgrepo.com, Generator: SVG Repo Mixer Tools -->
<svg fill="#000000" height="800px" width="800px" version="1.1" id="Layer_1" xmlns="http://www.w3.org/2000/svg" xmlns:xlink="http://www.w3.org/1999/xlink" 
	 viewBox="0 0 512 512" xml:space="preserve">
<g>
	<g>
		<path d="M484.658,104.096c9.355-10.175,7.898-18.195,6.197-22.07c-1.702-3.875-6.618-10.375-20.44-10.375h-21.502l33.284-36.193
			c1.439-1.564,2.197-3.635,2.108-5.759c-0.089-2.123-1.017-4.123-2.581-5.562l-16.008-14.72c-3.26-2.996-8.327-2.783-11.321,0.474
			l-56.797,61.76H195.535C187.554,30.335,151.357,0,108.538,0c-48.88,0-88.646,39.766-88.646,88.645s39.767,88.645,88.646,88.645
			c0.001,0,0.001,0,0.003,0c12.693,0,25.278-2.746,36.754-7.971l110.793,120.47V465.25h-7.353
			c-12.887,0-23.373,10.486-23.373,23.375c0,12.888,10.485,23.374,23.373,23.374h72.499c12.887,0,23.373-10.486,23.373-23.374
			c0-12.889-10.486-23.375-23.373-23.375h-7.351V289.784L484.658,104.096z M460.767,26.634l4.213,3.875l-37.836,41.142h-7.777
			L460.767,26.634z M404.632,87.675h7.777l-35.274,38.356h-7.778L404.632,87.675z M385.762,142.055l-90.899,98.843
			c-2.661,2.894-6.169,4.488-9.878,4.488s-7.215-1.594-9.876-4.488l-90.905-98.843H385.762z M108.541,161.266h-0.003
			c-40.044,0-72.622-32.578-72.622-72.621c0-40.043,32.578-72.621,72.622-72.621c34.016,0,62.926,23.361,70.612,55.628h-13.122
			c-7.404-25.248-30.584-42.95-57.489-42.95c-33.052,0-59.943,26.89-59.943,59.942c0,33.051,26.891,59.94,59.943,59.94
			c5.367,0,10.647-0.706,15.761-2.098l9.444,10.269C125.716,159.718,117.161,161.266,108.541,161.266z M85.314,104.097
			l26.084,28.362c-0.951,0.061-1.901,0.103-2.861,0.103c-24.218,0-43.92-19.701-43.92-43.917c0-24.217,19.702-43.919,43.92-43.919
			c18.064,0,33.843,10.88,40.53,26.926H99.555c-13.821,0-18.738,6.5-20.44,10.375S75.957,93.921,85.314,104.097z M321.235,481.274
			c4.053,0,7.349,3.298,7.349,7.352c0,4.053-3.297,7.351-7.349,7.351h-72.499c-4.053,0-7.35-3.298-7.35-7.351
			c0-4.053,3.297-7.352,7.35-7.352H321.235z M299.975,281.237c-1.359,1.478-2.114,3.414-2.114,5.423v178.59h-25.75V286.665
			c0-2.009-0.755-3.945-2.115-5.423L97.108,93.251C94.93,90.882,94.226,89.305,94,88.56c0.701-0.336,2.337-0.886,5.555-0.886
			h283.307l-35.274,38.356H165.951c-3.18,0-6.058,1.88-7.336,4.792c-1.278,2.911-0.714,6.303,1.439,8.643l103.26,112.278
			c5.73,6.233,13.427,9.665,21.671,9.665c8.244,0,15.94-3.432,21.673-9.664l103.253-112.28c2.153-2.341,2.717-5.732,1.439-8.643
			c-1.278-2.911-4.156-4.791-7.336-4.791h-5.11l35.274-38.356h36.238c3.219,0,4.855,0.549,5.556,0.886
			c-0.227,0.744-0.93,2.32-3.109,4.69L299.975,281.237z"/>
	</g>
</g>
</svg>